<svg width="519" height="273" viewBox="0 0 519 273" fill="none" xmlns="http://www.w3.org/2000/svg">
<g id="undraw_my_files_swob 1" clip-path="url(#clip0)">
<g id="bigLeaf">
<path id="Vector" d="M503.897 198.995C501.179 216.305 492.756 233.107 478.856 243.739C465.176 254.211 447.649 257.931 430.73 261.13C410.437 264.971 390.089 268.481 369.686 271.662C366.793 272.123 363.899 272.57 361.002 273H242.16C242.04 272.839 241.913 272.672 241.793 272.505C241.599 272.224 241.405 271.943 241.218 271.662C241.111 271.501 241.004 271.334 240.897 271.167H315.441C317.556 271.165 319.584 270.323 321.081 268.825C322.577 267.327 323.42 265.296 323.423 263.177V163.505C323.904 161.993 324.351 160.474 324.759 158.935C326.66 151.769 327.897 144.442 328.453 137.048C328.854 131.896 328.974 126.744 328.887 121.585C328.64 107.406 326.79 93.2275 324.779 79.1493C324.632 78.1121 324.479 77.0683 324.332 76.0311C322.915 66.2486 321.626 55.6029 326.549 47.0315C332.18 37.2222 344.677 33.1338 355.932 34.1375C376.178 35.9508 393.231 51.4811 402.095 69.8083C410.952 88.1288 412.935 108.965 413.744 129.306C414.171 140.093 414.125 151.361 412.622 162.18C417.698 150.551 422.779 138.922 427.864 127.292C430.576 121.09 433.428 114.686 438.451 110.15C448.951 100.655 466.318 102.568 477.533 111.213C488.742 119.865 494.887 133.535 498.974 147.098C504.038 163.873 506.623 181.685 503.897 198.995Z" fill="#CCCCCC"/>
<path id="Vector_2" d="M459.11 104.976C466.452 118.002 469.821 132.94 469.74 147.846C469.627 162.625 466.363 177.209 460.168 190.622C454.564 202.734 446.757 213.693 437.145 222.94C427.66 232.166 416.405 239.368 404.061 244.111C389.737 249.489 374.246 250.964 359.167 248.385C357.072 248.024 354.993 247.587 352.929 247.073C351.677 246.764 351.143 248.699 352.397 249.009C368.087 252.905 384.542 252.431 399.983 247.638C412.844 243.493 424.71 236.73 434.838 227.774C445.092 218.794 453.572 207.964 459.837 195.849C466.692 182.585 470.692 168.027 471.577 153.117C472.452 137.987 469.92 122.587 463.388 108.863C462.597 107.199 461.747 105.566 460.84 103.963C460.701 103.742 460.483 103.585 460.23 103.523C459.978 103.461 459.711 103.5 459.487 103.632C459.262 103.763 459.097 103.977 459.027 104.227C458.957 104.478 458.987 104.746 459.11 104.976H459.11Z" fill="white"/>
<path id="Vector_3" d="M352.765 33.872C360.907 48.9052 367.251 64.8471 371.667 81.3679C380.507 114.457 381.838 149.108 375.563 182.78C372.43 199.603 367.32 215.995 360.341 231.615C353.381 247.103 343.362 263.422 326.247 268.845C324.316 269.454 322.336 269.898 320.329 270.171C319.057 270.345 319.599 272.28 320.862 272.106C338.566 269.672 350.868 254.938 358.583 239.919C366.565 224.379 372.25 207.503 376.03 190.465C383.521 156.469 383.252 121.217 375.242 87.3395C371.262 70.463 365.314 54.114 357.521 38.6297C356.542 36.6906 355.534 34.767 354.496 32.8589C353.879 31.7237 352.148 32.7358 352.765 33.872V33.872Z" fill="white"/>
</g>
<g id="Group 10">
<path id="Vector_4" d="M268.972 30.9525H149.007C146.572 30.9556 144.238 31.9259 142.516 33.6507C140.795 35.3754 139.826 37.7137 139.823 40.1529V100.367H158.285C159.636 100.363 160.965 100.705 162.146 101.359C163.328 102.014 164.323 102.96 165.038 104.107L171.437 114.311L177.556 124.06L178.705 125.894L185.705 137.048L185.785 137.175H278.156V40.1528C278.153 37.7137 277.184 35.3754 275.463 33.6507C273.741 31.9259 271.407 30.9556 268.972 30.9525Z" fill="#CCCCCC"/>
<path id="Vector_5" d="M222.42 49.36H162.979C161.403 49.36 159.892 49.9871 158.778 51.1032C157.663 52.2194 157.037 53.7333 157.037 55.3118C157.037 56.8903 157.663 58.4042 158.778 59.5204C159.892 60.6366 161.403 61.2636 162.979 61.2636H222.42C223.996 61.2636 225.507 60.6366 226.621 59.5204C227.736 58.4042 228.362 56.8903 228.362 55.3118C228.362 53.7333 227.736 52.2194 226.621 51.1032C225.507 49.9871 223.996 49.36 222.42 49.36Z" fill="white"/>
<path id="Vector_6" d="M255.383 78.5872H163.52C161.8 78.5872 160.15 79.2717 158.934 80.4901C157.718 81.7086 157.034 83.3612 157.034 85.0843C157.034 86.8075 157.718 88.46 158.934 89.6785C160.15 90.8969 161.8 91.5815 163.52 91.5815H255.383C257.104 91.5815 258.753 90.8969 259.97 89.6785C261.186 88.46 261.869 86.8075 261.869 85.0843C261.869 83.3612 261.186 81.7086 259.97 80.4901C258.753 79.2717 257.104 78.5872 255.383 78.5872Z" fill="white"/>
<path id="Vector_7" d="M261.248 105.064C260.726 103.947 259.897 103.002 258.859 102.34C257.82 101.677 256.615 101.325 255.383 101.324H163.52C163.38 101.324 163.246 101.331 163.106 101.337C164.304 101.993 165.314 102.947 166.038 104.107L172.437 114.311H255.383C256.474 114.312 257.547 114.036 258.503 113.51C259.46 112.984 260.268 112.225 260.853 111.302C261.437 110.38 261.78 109.325 261.85 108.234C261.919 107.144 261.712 106.053 261.248 105.064Z" fill="white"/>
</g>
<path id="Vector_8" d="M274.803 129.681C274.591 128.125 273.825 126.699 272.644 125.666C271.464 124.632 269.951 124.062 268.383 124.061H191.556L192.704 125.894L199.705 137.048H268.383C269.733 137.051 271.049 136.627 272.144 135.837C272.985 135.237 273.671 134.444 274.143 133.524C274.616 132.605 274.863 131.585 274.863 130.551C274.863 130.26 274.843 129.969 274.803 129.681Z" fill="white"/>
<g id="Group 11">
<g id="Group 12">
<path id="Vector_9" d="M334.131 82.8093L324.779 79.1492L278.156 60.9223L222.375 39.1157C220.105 38.2331 217.578 38.2882 215.348 39.2691C213.118 40.2499 211.367 42.0764 210.479 44.3482L208.529 49.36L203.887 61.2636L197.14 78.5871L192.077 91.5814L188.283 101.324L183.22 114.311L179.419 124.06L179.313 124.342L178.705 125.894L185.705 137.048L185.785 137.175H315.441C316.631 137.174 317.807 137.441 318.881 137.955C319.955 138.469 320.9 139.218 321.646 140.146L322.194 138.754L328.887 121.585L339.347 94.733C340.23 92.4585 340.177 89.9262 339.199 87.691C338.221 85.4558 336.398 83.7003 334.131 82.8093Z" fill="#0D6EFD"/>
<path id="Vector_10" d="M284.152 82.6353L279.156 80.6814L228.779 60.9892C227.31 60.4198 225.676 60.4554 224.233 61.0885C222.79 61.7215 221.656 62.9005 221.077 64.3683C220.508 65.8406 220.544 67.4789 221.178 68.9247C221.811 70.3705 222.99 71.5062 224.457 72.0832L241.096 78.5871L261.676 86.6299L279.156 93.4683L279.831 93.7293C281.299 94.3002 282.933 94.2643 284.374 93.6294C285.816 92.9946 286.947 91.8127 287.519 90.3432C288.092 88.8737 288.059 87.2367 287.427 85.7916C286.796 84.3465 285.618 83.2113 284.152 82.6353Z" fill="white"/>
<path id="Vector_11" d="M304.244 121.873L279.156 112.063L261.248 105.064L251.683 101.324L226.768 91.5815L218.673 88.4165C217.163 87.8259 215.486 87.8231 213.974 88.409C212.462 88.9948 211.224 90.1266 210.504 91.5815C210.424 91.7487 210.344 91.9227 210.277 92.1034C209.967 92.8977 209.817 93.7454 209.834 94.598C209.851 95.4506 210.036 96.2915 210.378 97.0725C210.72 97.8536 211.212 98.5595 211.826 99.15C212.44 99.7406 213.164 100.204 213.957 100.514L216.028 101.324L249.238 114.311L279.156 126.008L299.529 133.977C300.278 134.27 301.075 134.42 301.88 134.419C303.393 134.421 304.859 133.894 306.024 132.928C307.19 131.962 307.981 130.618 308.262 129.129C308.543 127.64 308.295 126.099 307.561 124.774C306.827 123.449 305.654 122.423 304.244 121.873H304.244Z" fill="white"/>
<path id="Vector_12" d="M279.156 136.466L277.546 135.837L261.803 129.681L247.421 124.061L222.48 114.312L210.417 109.594C209.623 109.283 208.776 109.132 207.924 109.149C207.072 109.166 206.232 109.352 205.451 109.694C204.671 110.037 203.965 110.531 203.375 111.147C202.785 111.763 202.322 112.489 202.013 113.285C201.703 114.08 201.554 114.929 201.572 115.782C201.59 116.636 201.776 117.478 202.119 118.259C202.462 119.04 202.956 119.746 203.572 120.337C204.188 120.927 204.914 121.39 205.708 121.699L211.746 124.061L241.871 135.837L244.97 137.048L245.291 137.175H280.966L279.156 136.466Z" fill="white"/>
<path id="Vector_13" d="M218.219 137.048L215.119 135.837L202.168 130.772C201.263 130.417 200.29 130.27 199.321 130.343C198.352 130.416 197.412 130.707 196.57 131.193C195.728 131.68 195.006 132.35 194.458 133.154C193.91 133.958 193.55 134.875 193.404 135.837C193.34 136.237 193.315 136.643 193.331 137.048C193.329 137.091 193.332 137.133 193.337 137.175H218.546L218.219 137.048Z" fill="white"/>
</g>
</g>
<path id="Vector_14" d="M243.97 137.048L240.871 135.837H192.404C192.34 136.237 192.315 136.643 192.33 137.048H185.704L185.785 137.175H244.291L243.97 137.048ZM243.97 137.048H185.704L185.785 137.175H244.291L243.97 137.048ZM243.97 137.048H185.704L185.785 137.175H244.291L243.97 137.048ZM244.291 137.175L243.97 137.048H185.704L185.785 137.175H244.291ZM127.392 271.167C125.278 271.163 123.251 270.321 121.756 268.823C120.261 267.325 119.42 265.295 119.417 263.177V108.363C119.419 106.244 120.259 104.212 121.754 102.713C123.25 101.214 125.277 100.371 127.392 100.367H139.823V99.0287H127.392C124.923 99.0334 122.556 100.019 120.811 101.768C119.066 103.518 118.084 105.889 118.081 108.363V263.177C118.083 264.967 118.599 266.718 119.566 268.222C120.534 269.726 121.912 270.92 123.538 271.662H241.218C241.111 271.501 241.004 271.334 240.897 271.167H127.392ZM322.194 138.754C321.326 137.832 320.28 137.098 319.119 136.596C317.957 136.094 316.706 135.836 315.441 135.837H186.526L179.312 124.342L179.138 124.06L173.02 114.311L166.167 103.391C165.327 102.057 164.164 100.958 162.786 100.195C161.408 99.4324 159.86 99.0312 158.285 99.0287H127.392C124.923 99.0334 122.556 100.019 120.811 101.768C119.066 103.518 118.084 105.889 118.081 108.363V263.177C118.083 264.967 118.599 266.718 119.566 268.222C120.534 269.726 121.912 270.92 123.538 271.662C124.747 272.219 126.062 272.507 127.392 272.505H315.441C316.774 272.507 318.091 272.219 319.302 271.662C320.928 270.92 322.306 269.726 323.274 268.222C324.241 266.718 324.757 264.967 324.759 263.177V145.171C324.761 142.781 323.842 140.483 322.194 138.754ZM323.423 263.177C323.419 265.296 322.577 267.327 321.081 268.825C319.584 270.323 317.556 271.165 315.441 271.167H127.392C125.278 271.163 123.251 270.321 121.756 268.823C120.261 267.325 119.42 265.295 119.417 263.177V108.363C119.419 106.244 120.259 104.212 121.754 102.713C123.25 101.214 125.277 100.371 127.392 100.367H158.285C159.635 100.363 160.964 100.705 162.146 101.359C163.328 102.014 164.323 102.96 165.038 104.107L171.437 114.311L177.556 124.06L178.704 125.894L185.704 137.048L185.785 137.175H315.441C317.557 137.177 319.587 138.02 321.083 139.519C322.58 141.018 323.421 143.051 323.423 145.171V263.177ZM243.97 137.048H185.704L185.785 137.175H244.291L243.97 137.048ZM243.97 137.048H185.704L185.785 137.175H244.291L243.97 137.048ZM243.97 137.048H185.704L185.785 137.175H244.291L243.97 137.048ZM243.97 137.048L240.871 135.837H186.526L179.312 124.342L178.704 125.894L185.704 137.048L185.785 137.175H244.291L243.97 137.048Z" fill="#3F3D56"/>
<path id="Vector_15" d="M62.8206 192.553L58.9946 200.566L26.3203 189.597L31.9665 177.77L62.8206 192.553Z" fill="#FFB8B8"/>
<path id="Vector_16" d="M51.6211 205.939L59.3549 189.741L69.0682 194.395L57.0438 219.579L56.301 219.223C53.9219 218.083 52.0923 216.043 51.2146 213.552C50.337 211.06 50.4832 208.322 51.6211 205.939Z" fill="#2F2E41"/>
<path id="Vector_17" d="M70.5227 264.112L61.661 263.812L61.2876 229.256L71.6763 229.87L70.5227 264.112Z" fill="#FFB8B8"/>
<path id="Vector_18" d="M52.5933 261.034L70.5071 261.64L70.1439 272.419L42.2921 271.478L42.3198 270.653C42.4088 268.013 43.5412 265.516 45.4678 263.712C47.3945 261.908 49.9576 260.945 52.5933 261.034Z" fill="#2F2E41"/>
<path id="Vector_19" d="M83.7939 119.491C83.7939 119.491 56.6717 112.608 44.3763 122.751L37.5053 142.675L10.0215 181.8L49.8007 205.709L57.0333 187.596L39.6751 178.901L60.6496 160.788L57.0333 256.425L70.7753 258.599C70.7753 258.599 101.152 140.502 83.7939 119.491Z" fill="#2F2E41"/>
<path id="Vector_20" d="M41.6455 125.698L41.9761 125.109C45.4608 118.903 44.8961 108.798 43.8089 101.413C42.8983 95.2276 42.9257 84.3272 43.109 76.2719C43.1542 73.5529 44.1223 70.9304 45.8537 68.836C47.5851 66.7416 49.9767 65.3001 52.635 64.7488C60.8859 63.0288 71.0152 62.6644 76.3189 62.6L76.3233 62.9623L76.3189 62.6C77.7599 62.5943 79.1458 63.1545 80.1791 64.1606C81.2125 65.1667 81.8111 66.5385 81.8464 67.9816C82.0078 76.6561 81.9577 92.4746 79.8087 100.962C76.6194 113.558 81.6066 122.118 81.6575 122.203L81.9584 122.706L41.6455 125.698Z" fill="#0D6EFD"/>
<path id="Vector_21" d="M27.6941 160.437C28.577 160.013 29.3564 159.401 29.9776 158.643C30.5987 157.885 31.0463 157 31.289 156.05C31.5316 155.1 31.5634 154.108 31.3821 153.145C31.2007 152.181 30.8107 151.269 30.2394 150.473L45.546 84.3513H33.9739L20.4649 149.169C19.1932 150.219 18.3501 151.7 18.0955 153.332C17.8409 154.963 18.1924 156.631 19.0835 158.02C19.9746 159.409 21.3433 160.422 22.9303 160.867C24.5173 161.313 26.2123 161.16 27.6941 160.437Z" fill="#FFB8B8"/>
<path id="Vector_22" d="M120.765 95.3508L95.2208 71.1451L88.317 80.8274L105.577 96.0424L82.9416 114.049C82.7781 114.038 82.6153 114.024 82.4487 114.024C81.0559 114.022 79.6921 114.423 78.5206 115.178C77.3491 115.933 76.4194 117.009 75.8428 118.28C75.2663 119.55 75.0672 120.959 75.2695 122.34C75.4717 123.72 76.0667 125.013 76.9833 126.064C77.8998 127.115 79.0991 127.878 80.4377 128.264C81.7763 128.65 83.1975 128.641 84.5313 128.239C85.865 127.837 87.0549 127.058 87.9584 125.996C88.862 124.934 89.441 123.634 89.6263 122.251L89.6978 122.323L120.765 95.3508Z" fill="#FFB8B8"/>
<path id="Vector_23" d="M51.0102 65.5988C51.0102 65.5988 35.0587 62.9778 33.6122 75.2947C32.1657 87.6116 31.4424 87.6116 31.4424 87.6116C31.4424 87.6116 43.0145 85.4381 45.9076 88.3361C48.8006 91.2342 51.0102 65.5988 51.0102 65.5988Z" fill="#0D6EFD"/>
<path id="Vector_24" d="M74.8379 63.7023C74.8379 63.7023 87.8565 61.5288 93.6426 67.3249C99.4287 73.1211 102.322 74.5702 102.322 74.5702C102.322 74.5702 89.3031 81.8154 94.3659 88.3361C94.3659 88.3361 80.624 81.8154 78.4542 83.989C76.2844 86.1625 74.8379 63.7023 74.8379 63.7023Z" fill="#0D6EFD"/>
<path id="Vector_25" d="M63.4194 21.6382C59.3128 18.3529 58.2338 12.0121 60.6164 7.31956C62.999 2.62703 68.3858 -0.200074 73.6371 0.0110532C78.8883 0.222181 83.8365 3.24229 86.8787 7.53519C91.1523 13.5656 92.049 21.9469 97.7315 26.668C102.864 30.9321 110.217 30.81 116.876 30.4708C119.121 30.3564 121.438 30.2239 123.453 29.2247C125.467 28.2256 127.113 26.1184 126.853 23.8819C128.526 26.5349 127.555 30.2546 125.311 32.4436C123.066 34.6326 119.87 35.5496 116.759 35.9148C111.27 36.4927 105.726 35.6284 100.672 33.4071C95.6174 31.1857 91.2281 27.6838 87.9359 23.2464C85.6189 20.0444 83.8307 16.3157 80.6512 13.9714C77.4718 11.627 72.1704 11.4638 70.2186 14.9014C69.2532 16.6017 69.3479 18.7343 68.4602 20.4765C67.5724 22.2186 64.6896 23.158 63.8348 21.3994" fill="#2F2E41"/>
<path id="Vector_26" d="M62.7915 56.5779C73.8585 56.5779 82.8301 47.5906 82.8301 36.5043C82.8301 25.4179 73.8585 16.4307 62.7915 16.4307C51.7245 16.4307 42.7529 25.4179 42.7529 36.5043C42.7529 47.5906 51.7245 56.5779 62.7915 56.5779Z" fill="#2F2E41"/>
<path id="Vector_27" d="M62.6707 58.1493C71.7313 58.1493 79.0764 50.7914 79.0764 41.715C79.0764 32.6386 71.7313 25.2807 62.6707 25.2807C53.6102 25.2807 46.2651 32.6386 46.2651 41.715C46.2651 50.7914 53.6102 58.1493 62.6707 58.1493Z" fill="#FFB8B8"/>
<path id="Vector_28" d="M50.7119 29.6449C52.9415 30.1335 52.2119 33.8802 53.9738 35.3336C55.5631 36.6446 57.8519 35.2963 59.8522 34.8083C62.3776 34.1921 65.0208 35.0947 67.3524 36.2455C69.684 37.3963 71.9322 38.8245 74.4758 39.3606C77.0193 39.8967 80.0348 39.2924 81.4607 37.1154C82.824 35.0338 82.3221 32.2268 81.2555 29.9781C79.9293 27.1822 77.8481 24.8142 75.2474 23.1424C72.6468 21.4705 69.6307 20.5617 66.541 20.5188C63.4512 20.4759 60.4111 21.3007 57.7652 22.8997C55.1194 24.4987 52.9734 26.808 51.5704 29.566" fill="#2F2E41"/>
<path id="Vector_29" d="M478.254 272.331C478.254 272.508 478.183 272.678 478.058 272.803C477.933 272.929 477.763 272.999 477.586 273H0.667953C0.490801 273 0.320904 272.93 0.195638 272.804C0.0703729 272.679 0 272.508 0 272.331C0 272.153 0.0703729 271.983 0.195638 271.858C0.320904 271.732 0.490801 271.662 0.667953 271.662H477.586C477.763 271.662 477.933 271.733 478.058 271.858C478.183 271.984 478.254 272.154 478.254 272.331Z" fill="#3F3D56"/>
</g>
<defs>
<clipPath id="clip0">
<rect width="519" height="273" fill="white"/>
</clipPath>
</defs>
</svg>
